<svg width="330" height="437" viewBox="0 0 330 437" fill="none" xmlns="http://www.w3.org/2000/svg">
<path d="M87.9824 207.354C83.5322 207.354 81.3071 205.623 81.3071 202.162V194.745C81.3071 191.284 83.5322 189.553 87.9824 189.553H155.329V122.059C155.329 117.608 157.059 115.383 160.521 115.383H167.938C171.399 115.383 173.129 117.608 173.129 122.059V189.553H240.772C245.223 189.553 247.448 191.284 247.448 194.745V202.162C247.448 205.623 245.223 207.354 240.772 207.354H173.129V274.849C173.129 279.299 171.399 281.524 167.938 281.524H160.521C157.059 281.524 155.329 279.299 155.329 274.849V207.354H87.9824Z" fill="#424242"/>
<circle cx="164.92" cy="199.64" r="156.24" stroke="#424242" stroke-width="17.36"/>
</svg>
