<svg width="884" height="313" viewBox="0 0 884 313" fill="none" xmlns="http://www.w3.org/2000/svg">
<rect width="883.529" height="312.917" rx="49.085" fill="#F3A83C"/>
<path d="M368.672 196.503C366.802 196.503 366.317 195.316 367.216 192.944L394.071 122.462C394.898 120.269 396.084 119.172 397.63 119.172H405.18C406.726 119.172 407.912 120.269 408.739 122.462L435.594 192.944C436.493 195.316 436.008 196.503 434.138 196.503H428.638C426.732 196.503 425.438 195.622 424.755 193.86L418.014 176.011H384.796L378.055 193.86C377.372 195.622 376.078 196.503 374.172 196.503H368.672ZM388.193 167.167H414.617L406.366 145.596C405.611 143.583 404.856 141.354 404.101 138.909C403.382 136.465 402.52 132.996 401.513 128.502H401.297C400.291 132.996 399.41 136.465 398.655 138.909C397.936 141.354 397.199 143.583 396.444 145.596L388.193 167.167ZM441.311 168.191C441.311 160.462 443.18 153.667 446.919 147.807C450.658 141.911 456.122 138.963 463.313 138.963C467.447 138.963 470.754 139.646 473.235 141.013C475.716 142.379 477.945 144.248 479.922 146.621H480.03C479.958 145.542 479.922 144.446 479.922 143.331V119.334C479.922 117.716 480.731 116.908 482.349 116.908H486.986C488.604 116.908 489.413 117.716 489.413 119.334V194.076C489.413 195.694 488.604 196.503 486.986 196.503H482.456C481.162 196.503 480.461 195.694 480.353 194.076L480.03 189.762H479.922C477.945 192.135 475.716 194.004 473.235 195.37C470.754 196.736 467.447 197.42 463.313 197.42C456.122 197.42 450.658 194.49 446.919 188.63C443.18 182.734 441.311 175.921 441.311 168.191ZM451.341 168.191C451.341 174.806 452.473 180.163 454.738 184.262C457.039 188.36 460.922 190.409 466.386 190.409C470.269 190.409 473.487 189.097 476.039 186.473C478.628 183.812 479.922 179.786 479.922 174.393V161.99C479.922 156.597 478.628 152.589 476.039 149.964C473.487 147.304 470.269 145.974 466.386 145.974C460.922 145.974 457.039 148.023 454.738 152.121C452.473 156.22 451.341 161.577 451.341 168.191ZM501.708 168.191C501.708 160.462 503.578 153.667 507.316 147.807C511.055 141.911 516.52 138.963 523.71 138.963C527.844 138.963 531.152 139.646 533.632 141.013C536.113 142.379 538.342 144.248 540.319 146.621H540.427C540.355 145.542 540.319 144.446 540.319 143.331V119.334C540.319 117.716 541.128 116.908 542.746 116.908H547.384C549.001 116.908 549.81 117.716 549.81 119.334V194.076C549.81 195.694 549.001 196.503 547.384 196.503H542.854C541.56 196.503 540.859 195.694 540.751 194.076L540.427 189.762H540.319C538.342 192.135 536.113 194.004 533.632 195.37C531.152 196.736 527.844 197.42 523.71 197.42C516.52 197.42 511.055 194.49 507.316 188.63C503.578 182.734 501.708 175.921 501.708 168.191ZM511.738 168.191C511.738 174.806 512.871 180.163 515.136 184.262C517.437 188.36 521.319 190.409 526.784 190.409C530.667 190.409 533.884 189.097 536.437 186.473C539.025 183.812 540.319 179.786 540.319 174.393V161.99C540.319 156.597 539.025 152.589 536.437 149.964C533.884 147.304 530.667 145.974 526.784 145.974C521.319 145.974 517.437 148.023 515.136 152.121C512.871 156.22 511.738 161.577 511.738 168.191ZM599.207 128.448C597.23 128.448 596.241 127.639 596.241 126.021V121.599C596.241 119.981 597.23 119.172 599.207 119.172H656.261C658.238 119.172 659.227 119.981 659.227 121.599V126.021C659.227 127.639 658.238 128.448 656.261 128.448H632.911V193.537C632.911 195.514 632.012 196.503 630.215 196.503H625.253C623.456 196.503 622.557 195.514 622.557 193.537V128.448H599.207ZM671.253 196.503C669.635 196.503 668.826 195.694 668.826 194.076V142.307C668.826 140.689 669.635 139.88 671.253 139.88H675.89C677.508 139.88 678.317 140.689 678.317 142.307V194.076C678.317 195.694 677.508 196.503 675.89 196.503H671.253ZM671.253 129.634C669.635 129.634 668.826 128.825 668.826 127.207V122.57C668.826 120.952 669.635 120.143 671.253 120.143H675.89C677.508 120.143 678.317 120.952 678.317 122.57V127.207C678.317 128.825 677.508 129.634 675.89 129.634H671.253ZM696.059 196.503C694.441 196.503 693.632 195.694 693.632 194.076V142.307C693.632 140.689 694.441 139.88 696.059 139.88H700.588C702.206 139.88 703.015 140.689 703.015 142.307V146.621H703.231C705.568 144.032 708.102 142.109 710.834 140.851C713.567 139.593 716.191 138.963 718.708 138.963C723.345 138.963 726.905 140.132 729.385 142.469C731.902 144.769 733.519 147.088 734.239 149.425H734.454C736.432 146.477 738.93 143.997 741.95 141.983C744.97 139.97 748.187 138.963 751.603 138.963C757.319 138.963 761.633 140.815 764.545 144.518C767.457 148.185 768.913 153.218 768.913 159.617V194.076C768.913 195.694 768.104 196.503 766.486 196.503H761.849C760.231 196.503 759.422 195.694 759.422 194.076V162.745C759.422 155.699 758.541 151.151 756.78 149.102C755.018 147.016 752.304 145.974 748.637 145.974C745.042 145.974 742.04 147.52 739.631 150.611C737.222 153.667 736.018 158.287 736.018 164.471V194.076C736.018 195.694 735.209 196.503 733.591 196.503H728.954C727.336 196.503 726.527 195.694 726.527 194.076V162.745C726.527 155.699 725.646 151.151 723.885 149.102C722.123 147.016 719.409 145.974 715.742 145.974C712.147 145.974 709.145 147.376 706.736 150.18C704.327 152.948 703.123 157.712 703.123 164.471V194.076C703.123 195.694 702.314 196.503 700.696 196.503H696.059ZM781.047 168.191C781.047 159.276 783.276 152.175 787.733 146.891C792.191 141.606 798.573 138.963 806.877 138.963C813.78 138.963 819.496 141.39 824.026 146.243C828.592 151.061 830.875 158.772 830.875 169.378C830.875 170.996 830.138 171.805 828.664 171.805H791.077C791.688 178.743 793.558 183.578 796.685 186.311C799.813 189.007 803.354 190.355 807.309 190.355C811.479 190.355 814.679 189.654 816.908 188.252C819.137 186.85 820.772 185.466 821.815 184.1C822.965 182.59 824.08 182.302 825.158 183.237L828.34 185.987C829.167 186.706 829.167 187.695 828.34 188.953C827.657 189.996 825.698 191.667 822.462 193.968C819.262 196.269 814.211 197.42 807.309 197.42C798.321 197.42 791.688 194.777 787.41 189.492C783.168 184.208 781.047 177.107 781.047 168.191ZM790.861 164.794H821.33C821.186 159.761 819.892 155.357 817.447 151.582C815.002 147.771 811.407 145.866 806.662 145.866C802.491 145.866 798.95 147.268 796.038 150.072C793.126 152.84 791.4 157.748 790.861 164.794Z" fill="white"/>
<circle cx="177.933" cy="153.391" r="113.509" stroke="white" stroke-width="18.4069"/>
<path d="M178.131 163.88L228.008 99.7533" stroke="white" stroke-width="14.2505" stroke-linecap="round"/>
<line x1="173.624" y1="166.134" x2="94.8812" y2="139.886" stroke="white" stroke-width="7.12524" stroke-linecap="round"/>
<circle cx="178.131" cy="163.88" r="14.2505" fill="white"/>
</svg>
